<svg xmlns="http://www.w3.org/2000/svg" xmlns:xlink="http://www.w3.org/1999/xlink" id="TM_-_Single_Small_-_B_copy_2" x="0px" y="0px" width="1080px" height="400px" viewBox="0 0 1080 400" xml:space="preserve"><g>	<g>		<path fill="#00A9EF" d="M264.931,39.545H87.311c-39.568,0-71.645,32.077-71.645,71.646v177.619   c0,39.568,32.077,71.645,71.645,71.645h177.62c39.569,0,71.646-32.076,71.646-71.645V111.191   C336.577,71.622,304.5,39.545,264.931,39.545 M277.389,312.988c-0.237,0.424-0.76,0.689-1.991,1.76   c7.777-37.266-3.445-68.779-28.111-95.053c-22.85-24.342-47.775-46.737-72.341-70.53c0.284-0.228-0.959,0.587-1.987,1.616   c-20.468,20.488-40.962,40.955-61.347,61.525c-19.794,19.971-33.924,42.998-36.478,71.643c-0.877,9.836-0.139,19.818-0.139,28.441   c0.628,0.736-0.353-0.111-0.961-1.173c-27.698-48.368-22.05-100.22,16.361-140.229c27.877-29.039,56.781-57.092,85.377-85.734   c1.449,1.158,2.531,1.865,3.425,2.758c28.117,28.105,56.665,55.796,84.211,84.451C303.88,214.559,303.198,266.924,277.389,312.988   "></path>		<path fill="#00A9EF" d="M466.735,138.986c-1.808-2.918-4.376-5.174-7.71-6.772c-3.333-1.595-7.364-2.396-12.085-2.396   c-8.892,0-15.768,2.883-20.629,8.647c-4.864,5.765-7.293,13.648-7.293,23.65c0,11.531,2.709,20.142,8.126,25.837   c5.418,5.698,13.753,8.544,25.005,8.544c10.695,0,19.307-4.305,25.838-12.919h-36.881v-32.714h75.221v46.258   c-6.392,10.975-15.21,20.386-26.463,28.234c-11.252,7.85-25.492,11.771-42.716,11.771c-15.282,0-28.582-3.158-39.902-9.48   c-11.324-6.318-20.004-15.176-26.046-26.566c-6.043-11.389-9.065-24.379-9.065-38.965s3.022-27.574,9.065-38.966   c6.042-11.389,14.689-20.244,25.941-26.567c11.253-6.32,24.448-9.481,39.59-9.481c19.308,0,35.039,4.656,47.196,13.961   c12.155,9.309,19.343,21.95,21.567,37.924H466.735z"></path>		<rect x="539.248" y="88.561" fill="#00A9EF" width="46.258" height="147.525"></rect>		<path fill="#00A9EF" d="M707.191,213.789h-49.176l-7.293,22.297h-48.549L656.141,88.56h53.344l53.758,147.526h-48.758   L707.191,213.789z M695.939,178.992l-13.336-41.049l-13.336,41.049H695.939z"></path>		<polygon fill="#00A9EF" points="921.395,236.086 875.137,236.086 826.167,161.906 826.167,236.086 779.912,236.086    779.912,88.561 826.167,88.561 875.137,163.99 875.137,88.561 921.395,88.561   "></polygon>		<polygon fill="#00A9EF" points="1064.334,88.561 1064.334,125.232 1025.16,125.232 1025.16,236.086 978.902,236.086    978.902,125.232 940.145,125.232 940.145,88.561   "></polygon>		<path fill="#00A9EF" d="M541.965,307.168c-4.057-2.264-7.268-5.424-9.631-9.48c-2.365-4.057-3.547-8.623-3.547-13.701   c0-5.076,1.182-9.631,3.547-13.662c2.363-4.031,5.574-7.18,9.631-9.445c4.055-2.264,8.498-3.396,13.326-3.396   c4.877,0,9.344,1.133,13.402,3.396c4.057,2.266,7.252,5.414,9.594,9.445c2.338,4.031,3.508,8.586,3.508,13.662   c0,5.078-1.17,9.645-3.508,13.701c-2.342,4.057-5.537,7.217-9.594,9.48c-4.059,2.266-8.525,3.398-13.402,3.398   C550.463,310.566,546.02,309.434,541.965,307.168 M564.475,300.822c2.688-1.568,4.789-3.809,6.309-6.719   c1.518-2.912,2.277-6.283,2.277-10.117c0-3.832-0.76-7.191-2.277-10.078c-1.52-2.887-3.621-5.102-6.309-6.645   c-2.688-1.543-5.748-2.314-9.184-2.314c-3.434,0-6.494,0.771-9.184,2.314c-2.688,1.543-4.791,3.758-6.308,6.645   c-1.519,2.887-2.278,6.246-2.278,10.078c0,3.834,0.759,7.205,2.278,10.117c1.517,2.91,3.62,5.15,6.308,6.719   c2.689,1.568,5.75,2.352,9.184,2.352C558.727,303.174,561.786,302.391,564.475,300.822"></path>		<rect x="592.396" y="258.154" fill="#00A9EF" width="8.512" height="51.889"></rect>		<polygon fill="#00A9EF" points="622.857,303.174 640.402,303.174 640.402,310.043 614.346,310.043 614.346,258.154    622.857,258.154   "></polygon>		<polygon fill="#00A9EF" points="704.906,258.154 704.906,265.098 691.095,265.098 691.095,310.043 682.584,310.043    682.584,265.098 668.697,265.098 668.697,258.154   "></polygon>		<path fill="#00A9EF" d="M726.072,307.168c-4.057-2.264-7.268-5.424-9.631-9.48c-2.365-4.057-3.548-8.623-3.548-13.701   c0-5.076,1.183-9.631,3.548-13.662c2.363-4.031,5.574-7.18,9.631-9.445c4.057-2.264,8.498-3.396,13.328-3.396   c4.877,0,9.344,1.133,13.4,3.396c4.057,2.266,7.254,5.414,9.594,9.445s3.51,8.586,3.51,13.662c0,5.078-1.17,9.645-3.51,13.701   s-5.537,7.217-9.594,9.48c-4.057,2.266-8.523,3.398-13.4,3.398C734.57,310.566,730.129,309.434,726.072,307.168 M748.582,300.822   c2.688-1.568,4.791-3.809,6.309-6.719c1.518-2.912,2.277-6.283,2.277-10.117c0-3.832-0.76-7.191-2.277-10.078   s-3.621-5.102-6.309-6.645c-2.688-1.543-5.748-2.314-9.182-2.314c-3.436,0-6.496,0.771-9.184,2.314s-4.791,3.758-6.309,6.645   c-1.52,2.887-2.277,6.246-2.277,10.078c0,3.834,0.758,7.205,2.277,10.117c1.518,2.91,3.621,5.15,6.309,6.719   s5.748,2.352,9.184,2.352C742.834,303.174,745.894,302.391,748.582,300.822"></path>		<path fill="#00A9EF" d="M786.846,307.168c-4.057-2.264-7.268-5.424-9.631-9.48c-2.365-4.057-3.547-8.623-3.547-13.701   c0-5.076,1.182-9.631,3.547-13.662c2.363-4.031,5.574-7.18,9.631-9.445c4.057-2.264,8.498-3.396,13.326-3.396   c4.877,0,9.344,1.133,13.402,3.396c4.057,2.266,7.254,5.414,9.595,9.445c2.337,4.031,3.507,8.586,3.507,13.662   c0,5.078-1.17,9.645-3.507,13.701c-2.341,4.057-5.538,7.217-9.595,9.48c-4.059,2.266-8.525,3.398-13.402,3.398   C795.344,310.566,790.902,309.434,786.846,307.168 M809.355,300.822c2.688-1.568,4.791-3.809,6.309-6.719   c1.518-2.912,2.277-6.283,2.277-10.117c0-3.832-0.76-7.191-2.277-10.078s-3.62-5.102-6.309-6.645   c-2.688-1.543-5.748-2.314-9.184-2.314c-3.434,0-6.494,0.771-9.182,2.314c-2.689,1.543-4.793,3.758-6.311,6.645   s-2.277,6.246-2.277,10.078c0,3.834,0.76,7.205,2.277,10.117c1.518,2.91,3.621,5.15,6.311,6.719   c2.688,1.568,5.748,2.352,9.182,2.352C803.607,303.174,806.668,302.391,809.355,300.822"></path>		<polygon fill="#00A9EF" points="845.789,303.174 863.334,303.174 863.334,310.043 837.279,310.043 837.279,258.154    845.789,258.154   "></polygon>		<path fill="#00A9EF" d="M880.355,308.736c-2.787-1.219-4.979-2.949-6.57-5.189c-1.594-2.238-2.389-4.852-2.389-7.838h9.107   c0.199,2.238,1.084,4.082,2.65,5.523c1.568,1.445,3.771,2.166,6.607,2.166c2.938,0,5.227-0.709,6.869-2.129   c1.643-1.418,2.465-3.248,2.465-5.486c0-1.742-0.512-3.16-1.531-4.256c-1.02-1.094-2.289-1.941-3.807-2.539   c-1.52-0.596-3.621-1.242-6.311-1.939c-3.385-0.896-6.135-1.805-8.248-2.727c-2.117-0.92-3.92-2.352-5.414-4.293   c-1.492-1.941-2.24-4.527-2.24-7.764c0-2.986,0.748-5.6,2.24-7.84c1.494-2.24,3.584-3.957,6.271-5.152   c2.688-1.193,5.799-1.791,9.332-1.791c5.027,0,9.146,1.258,12.357,3.77c3.209,2.516,4.988,5.961,5.338,10.342h-9.408   c-0.148-1.891-1.045-3.51-2.688-4.854s-3.807-2.016-6.494-2.016c-2.439,0-4.432,0.623-5.973,1.867   c-1.545,1.244-2.316,3.035-2.316,5.375c0,1.594,0.486,2.898,1.457,3.92c0.971,1.02,2.203,1.828,3.695,2.426   c1.494,0.598,3.533,1.244,6.123,1.941c3.434,0.945,6.232,1.893,8.398,2.836c2.166,0.947,4.006,2.402,5.525,4.369   c1.518,1.967,2.277,4.592,2.277,7.875c0,2.641-0.709,5.127-2.129,7.467c-1.418,2.34-3.484,4.217-6.195,5.637   c-2.715,1.418-5.912,2.129-9.596,2.129C886.277,310.566,883.143,309.957,880.355,308.736"></path>	</g></g><g>	<g>		<g>			<g>				<path fill="#00A9EF" d="M1002.222,259.83c-12.44,0-22.524,10.095-22.524,22.543c0,12.456,10.084,22.551,22.524,22.551     c12.456,0,22.56-10.095,22.56-22.551C1024.781,269.925,1014.678,259.83,1002.222,259.83z M1002.222,301.328     c-10.444,0-18.948-8.484-18.948-18.955c0-10.463,8.504-18.957,18.948-18.957c10.479,0,18.966,8.494,18.966,18.957     C1021.188,292.844,1012.7,301.328,1002.222,301.328z"></path>			</g>		</g>		<g>			<path fill="#00A9EF" d="M998.791,275.991v2.176h-4.205v10.971h-2.609v-10.971h-4.205v-2.176H998.791z M1013.001,289.138    l-0.484-7.732c-0.048-1.015-0.048-2.271-0.097-3.674h-0.145c-0.338,1.159-0.726,2.706-1.112,3.915l-2.367,7.299h-2.706    l-2.369-7.492c-0.241-1.016-0.628-2.562-0.918-3.722h-0.146c0,1.208-0.048,2.465-0.098,3.674l-0.481,7.732h-2.514l0.966-13.146    h3.916l2.271,6.429c0.291,1.015,0.532,1.981,0.87,3.334h0.049c0.339-1.208,0.628-2.319,0.918-3.286l2.272-6.477h3.769    l1.015,13.146H1013.001z"></path>		</g>	</g></g></svg>